<svg width="247" height="88" viewBox="0 0 247 88" fill="none" xmlns="http://www.w3.org/2000/svg">
<path d="M28.0264 21.6677C40.7763 21.6677 51.1123 32.0037 51.1123 44.7537C51.1123 57.5036 40.7763 67.8396 28.0264 67.8396C15.2764 67.8396 4.94045 57.5036 4.94043 44.7537C4.94043 32.0037 15.2764 21.6677 28.0264 21.6677Z" stroke="#9AE600" stroke-width="4"/>
<path d="M28 17.7273C42.9117 17.7273 55 29.8156 55 44.7273C55 59.639 42.9117 71.7273 28 71.7273C13.0883 71.7273 1 59.639 1 44.7273C1 29.8156 13.0883 17.7273 28 17.7273Z" stroke="#7CCF00" stroke-width="2"/>
<path d="M28.8638 52.998V36.0157H35.5638C36.8463 36.0157 37.9409 36.2452 38.8475 36.704C39.7596 37.1573 40.4534 37.8013 40.9288 38.6361C41.4097 39.4653 41.6502 40.441 41.6502 41.5632C41.6502 42.6909 41.407 43.6611 40.9205 44.4737C40.434 45.2808 39.7292 45.9 38.806 46.3312C37.8884 46.7624 36.7772 46.978 35.4726 46.978H30.9866V44.0923H34.8921C35.5776 44.0923 36.147 43.9983 36.6003 43.8104C37.0536 43.6224 37.3908 43.3405 37.6119 42.9646C37.8386 42.5886 37.9519 42.1215 37.9519 41.5632C37.9519 40.9993 37.8386 40.5239 37.6119 40.1369C37.3908 39.75 37.0508 39.457 36.592 39.258C36.1387 39.0534 35.5666 38.9512 34.8755 38.9512H32.4543V52.998H28.8638ZM38.0348 45.2698L42.2555 52.998H38.2919L34.1624 45.2698H38.0348Z" fill="#9AE600"/>
<path d="M13.7446 52.998V36.0157H20.4447C21.7327 36.0157 22.83 36.2617 23.7366 36.7537C24.6432 37.2402 25.3342 37.9174 25.8097 38.7853C26.2906 39.6477 26.5311 40.6428 26.5311 41.7705C26.5311 42.8982 26.2878 43.8933 25.8014 44.7557C25.3149 45.618 24.6101 46.2897 23.6869 46.7707C22.7692 47.2516 21.6581 47.4921 20.3534 47.4921H16.083V44.6147H19.773C20.464 44.6147 21.0334 44.4958 21.4812 44.2581C21.9345 44.0149 22.2717 43.6804 22.4928 43.2548C22.7195 42.8236 22.8328 42.3288 22.8328 41.7705C22.8328 41.2066 22.7195 40.7146 22.4928 40.2945C22.2717 39.8688 21.9345 39.5399 21.4812 39.3077C21.0279 39.07 20.4529 38.9512 19.7564 38.9512H17.3351V52.998H13.7446Z" fill="#9AE600"/>
<g filter="url(#filter0_d_171_365)">
<path d="M226.73 21V47.1818H221.284V21H226.73Z" fill="#F8FAFC"/>
<path d="M216.922 21V47.1818H211.476V21H216.922Z" fill="#F8FAFC"/>
<path d="M198.269 47.5654C196.283 47.5654 194.566 47.1435 193.117 46.2997C191.677 45.4475 190.565 44.2628 189.781 42.7458C188.997 41.2202 188.604 39.4517 188.604 37.4404C188.604 35.412 188.997 33.6392 189.781 32.1222C190.565 30.5966 191.677 29.412 193.117 28.5682C194.566 27.7159 196.283 27.2898 198.269 27.2898C200.255 27.2898 201.968 27.7159 203.408 28.5682C204.857 29.412 205.974 30.5966 206.758 32.1222C207.542 33.6392 207.934 35.412 207.934 37.4404C207.934 39.4517 207.542 41.2202 206.758 42.7458C205.974 44.2628 204.857 45.4475 203.408 46.2997C201.968 47.1435 200.255 47.5654 198.269 47.5654ZM198.295 43.3466C199.198 43.3466 199.952 43.0909 200.558 42.5796C201.163 42.0597 201.619 41.3523 201.926 40.4574C202.241 39.5625 202.399 38.5441 202.399 37.402C202.399 36.26 202.241 35.2415 201.926 34.3466C201.619 33.4517 201.163 32.7443 200.558 32.2245C199.952 31.7046 199.198 31.4446 198.295 31.4446C197.383 31.4446 196.616 31.7046 195.994 32.2245C195.38 32.7443 194.916 33.4517 194.6 34.3466C194.293 35.2415 194.14 36.26 194.14 37.402C194.14 38.5441 194.293 39.5625 194.6 40.4574C194.916 41.3523 195.38 42.0597 195.994 42.5796C196.616 43.0909 197.383 43.3466 198.295 43.3466Z" fill="#F8FAFC"/>
<path d="M166.191 47.1818V21H176.52C178.498 21 180.185 21.3537 181.583 22.0611C182.989 22.7599 184.059 23.7528 184.792 25.0398C185.533 26.3182 185.904 27.8224 185.904 29.5526C185.904 31.2912 185.529 32.7869 184.779 34.0398C184.029 35.2841 182.942 36.2386 181.519 36.9034C180.104 37.5682 178.391 37.9006 176.38 37.9006H169.464V33.4517H175.485C176.542 33.4517 177.42 33.3068 178.118 33.017C178.817 32.7273 179.337 32.2926 179.678 31.7131C180.028 31.1335 180.202 30.4134 180.202 29.5526C180.202 28.6832 180.028 27.9503 179.678 27.3537C179.337 26.7571 178.813 26.3054 178.106 25.9986C177.407 25.6832 176.525 25.5256 175.459 25.5256H171.726V47.1818H166.191ZM180.33 35.267L186.837 47.1818H180.726L174.36 35.267H180.33Z" fill="#F8FAFC"/>
<path d="M151.358 47.1818V27.5454H156.638V30.9715H156.843C157.201 29.7528 157.802 28.8323 158.645 28.2102C159.489 27.5795 160.461 27.2642 161.56 27.2642C161.833 27.2642 162.127 27.2812 162.442 27.3153C162.758 27.3494 163.035 27.3963 163.273 27.4559V32.2883C163.017 32.2116 162.664 32.1434 162.212 32.0838C161.76 32.0241 161.347 31.9943 160.972 31.9943C160.171 31.9943 159.455 32.169 158.824 32.5184C158.202 32.8593 157.708 33.3366 157.341 33.9502C156.983 34.5639 156.804 35.2713 156.804 36.0724V47.1818H151.358Z" fill="#F8FAFC"/>
<path d="M138.791 47.5654C136.771 47.5654 135.033 47.1563 133.575 46.3381C132.127 45.5114 131.01 44.3438 130.226 42.8352C129.442 41.3182 129.05 39.5242 129.05 37.4531C129.05 35.4333 129.442 33.6605 130.226 32.135C131.01 30.6094 132.114 29.4205 133.537 28.5682C134.969 27.7159 136.648 27.2898 138.574 27.2898C139.869 27.2898 141.075 27.4986 142.192 27.9162C143.317 28.3253 144.297 28.9432 145.132 29.7699C145.976 30.5966 146.632 31.6364 147.101 32.8892C147.57 34.1335 147.804 35.5909 147.804 37.2614V38.7571H131.223V35.3821H142.678C142.678 34.598 142.507 33.9034 142.166 33.2983C141.825 32.6932 141.352 32.2202 140.747 31.8793C140.151 31.5299 139.456 31.3551 138.663 31.3551C137.837 31.3551 137.104 31.5469 136.465 31.9304C135.834 32.3054 135.34 32.8125 134.982 33.4517C134.624 34.0824 134.44 34.7855 134.432 35.5611V38.7699C134.432 39.7415 134.611 40.581 134.969 41.2884C135.335 41.9958 135.851 42.5412 136.516 42.9247C137.18 43.3083 137.969 43.5 138.881 43.5C139.486 43.5 140.04 43.4148 140.543 43.2443C141.046 43.0739 141.476 42.8182 141.834 42.4773C142.192 42.1364 142.465 41.7188 142.652 41.2245L147.689 41.5568C147.433 42.7671 146.909 43.8239 146.117 44.7273C145.332 45.6222 144.318 46.321 143.074 46.8239C141.838 47.3182 140.411 47.5654 138.791 47.5654Z" fill="#F8FAFC"/>
<path d="M114.633 41.5312L114.646 34.9986H115.438L121.728 27.5455H127.979L119.529 37.4148H118.238L114.633 41.5312ZM109.698 47.1818V21H115.144V47.1818H109.698ZM121.971 47.1818L116.193 38.6293L119.823 34.7812L128.35 47.1818H121.971Z" fill="#F8FAFC"/>
<path d="M96.4919 47.5654C94.5061 47.5654 92.7888 47.1435 91.3399 46.2997C89.8996 45.4475 88.7874 44.2628 88.0033 42.7458C87.2192 41.2202 86.8271 39.4517 86.8271 37.4404C86.8271 35.412 87.2192 33.6392 88.0033 32.1222C88.7874 30.5966 89.8996 29.412 91.3399 28.5682C92.7888 27.7159 94.5061 27.2898 96.4919 27.2898C98.4777 27.2898 100.191 27.7159 101.631 28.5682C103.08 29.412 104.196 30.5966 104.981 32.1222C105.765 33.6392 106.157 35.412 106.157 37.4404C106.157 39.4517 105.765 41.2202 104.981 42.7458C104.196 44.2628 103.08 45.4475 101.631 46.2997C100.191 47.1435 98.4777 47.5654 96.4919 47.5654ZM96.5175 43.3466C97.4209 43.3466 98.1752 43.0909 98.7803 42.5796C99.3854 42.0597 99.8414 41.3523 100.148 40.4574C100.464 39.5625 100.621 38.5441 100.621 37.402C100.621 36.26 100.464 35.2415 100.148 34.3466C99.8414 33.4517 99.3854 32.7443 98.7803 32.2245C98.1752 31.7046 97.4209 31.4446 96.5175 31.4446C95.6056 31.4446 94.8385 31.7046 94.2164 32.2245C93.6027 32.7443 93.1382 33.4517 92.8229 34.3466C92.5161 35.2415 92.3627 36.26 92.3627 37.402C92.3627 38.5441 92.5161 39.5625 92.8229 40.4574C93.1382 41.3523 93.6027 42.0597 94.2164 42.5796C94.8385 43.0909 95.6056 43.3466 96.5175 43.3466Z" fill="#F8FAFC"/>
<path d="M64.73 47.1818V21H75.0595C77.0453 21 78.7371 21.3793 80.1348 22.1378C81.5325 22.8878 82.5979 23.9318 83.3308 25.2699C84.0723 26.5994 84.4431 28.1335 84.4431 29.8722C84.4431 31.6108 84.0681 33.1449 83.3181 34.4744C82.5681 35.804 81.4814 36.8395 80.0581 37.581C78.6433 38.3224 76.9303 38.6932 74.9189 38.6932H68.3351V34.2571H74.024C75.0894 34.2571 75.9672 34.0739 76.6575 33.7074C77.3564 33.3324 77.8763 32.8168 78.2172 32.1605C78.5666 31.4957 78.7413 30.733 78.7413 29.8722C78.7413 29.0028 78.5666 28.2443 78.2172 27.5966C77.8763 26.9403 77.3564 26.4332 76.6575 26.0753C75.9587 25.7088 75.0723 25.5256 73.9984 25.5256H70.2655V47.1818H64.73Z" fill="#F8FAFC"/>
<path d="M160.381 65.3636C159.566 65.3636 158.862 65.1742 158.267 64.7954C157.672 64.4129 157.212 63.8844 156.886 63.2102C156.564 62.5322 156.403 61.7519 156.403 60.8693C156.403 59.9905 156.564 59.2102 156.886 58.5284C157.212 57.8428 157.661 57.3068 158.233 56.9204C158.809 56.5303 159.473 56.3352 160.227 56.3352C160.701 56.3352 161.157 56.4223 161.597 56.5966C162.036 56.767 162.43 57.0303 162.778 57.3863C163.131 57.7386 163.409 58.1837 163.614 58.7216C163.818 59.2557 163.92 59.8882 163.92 60.6193V61.1193H157.102V60.2273H162.886C162.886 59.6666 162.773 59.1629 162.545 58.7159C162.322 58.2651 162.009 57.9091 161.608 57.6477C161.21 57.3863 160.75 57.2557 160.227 57.2557C159.674 57.2557 159.187 57.4034 158.767 57.6988C158.347 57.9943 158.017 58.3844 157.778 58.8693C157.543 59.3541 157.424 59.8844 157.42 60.4602V60.9943C157.42 61.6875 157.54 62.2935 157.778 62.8125C158.021 63.3276 158.364 63.7273 158.807 64.0113C159.25 64.2954 159.775 64.4375 160.381 64.4375C160.793 64.4375 161.155 64.3731 161.466 64.2443C161.78 64.1155 162.043 63.9432 162.256 63.7273C162.472 63.5076 162.634 63.267 162.744 63.0057L163.704 63.3182C163.572 63.6856 163.354 64.0246 163.051 64.3352C162.752 64.6458 162.377 64.8958 161.926 65.0852C161.479 65.2708 160.964 65.3636 160.381 65.3636Z" fill="#62748E"/>
<path d="M154.649 56.4544V57.3351H150.484V56.4544H154.649ZM151.786 54.3635H152.803V62.9033C152.803 63.2669 152.865 63.5529 152.99 63.7613C153.115 63.9658 153.278 64.1116 153.479 64.1988C153.679 64.2821 153.893 64.3238 154.121 64.3238C154.253 64.3238 154.367 64.3162 154.462 64.301C154.556 64.2821 154.64 64.2631 154.712 64.2442L154.928 65.159C154.829 65.1969 154.708 65.2309 154.564 65.2613C154.42 65.2953 154.242 65.3124 154.03 65.3124C153.659 65.3124 153.301 65.231 152.956 65.0681C152.615 64.9052 152.335 64.6628 152.115 64.3408C151.895 64.0188 151.786 63.6192 151.786 63.1419V54.3635Z" fill="#62748E"/>
<path d="M144.743 65.3807C144.216 65.3807 143.735 65.2784 143.3 65.0738C142.864 64.8655 142.517 64.5663 142.26 64.1761C142.002 63.7822 141.874 63.3049 141.874 62.7443C141.874 62.3125 141.955 61.9488 142.118 61.6534C142.281 61.3579 142.512 61.1155 142.811 60.9261C143.11 60.7367 143.464 60.5871 143.874 60.4773C144.283 60.3674 144.733 60.2822 145.226 60.2216C145.714 60.161 146.127 60.1079 146.464 60.0625C146.805 60.017 147.065 59.9451 147.243 59.8466C147.421 59.7481 147.51 59.589 147.51 59.3693V59.1648C147.51 58.5701 147.332 58.1023 146.976 57.7613C146.624 57.4166 146.116 57.2443 145.453 57.2443C144.824 57.2443 144.311 57.3826 143.913 57.6591C143.519 57.9356 143.243 58.2613 143.084 58.6363L142.124 58.2898C142.321 57.8125 142.593 57.4318 142.942 57.1477C143.29 56.8598 143.68 56.6534 144.112 56.5284C144.544 56.3996 144.981 56.3352 145.425 56.3352C145.758 56.3352 146.105 56.3788 146.464 56.4659C146.828 56.553 147.165 56.7045 147.476 56.9204C147.786 57.1326 148.038 57.4299 148.231 57.8125C148.425 58.1913 148.521 58.6723 148.521 59.2557V65.1818H147.51V63.8011H147.447C147.326 64.0587 147.146 64.3087 146.908 64.5511C146.669 64.7935 146.37 64.9924 146.01 65.1477C145.65 65.303 145.228 65.3807 144.743 65.3807ZM144.879 64.4545C145.417 64.4545 145.883 64.3352 146.277 64.0966C146.671 63.8579 146.974 63.5416 147.186 63.1477C147.402 62.75 147.51 62.3125 147.51 61.8352V60.5738C147.434 60.6458 147.307 60.7102 147.129 60.767C146.955 60.8238 146.752 60.875 146.521 60.9204C146.294 60.9621 146.067 60.9981 145.839 61.0284C145.612 61.0587 145.408 61.0852 145.226 61.1079C144.733 61.1685 144.313 61.2632 143.964 61.392C143.616 61.5208 143.349 61.6988 143.163 61.9261C142.978 62.1496 142.885 62.4375 142.885 62.7898C142.885 63.3201 143.074 63.731 143.453 64.0227C143.832 64.3106 144.307 64.4545 144.879 64.4545Z" fill="#62748E"/>
<path d="M128.571 65.1817V56.4545H129.554V57.7954H129.645C129.819 57.3446 130.109 56.9904 130.514 56.7329C130.923 56.4715 131.414 56.3408 131.986 56.3408C132.588 56.3408 133.082 56.4829 133.469 56.767C133.859 57.0473 134.15 57.4336 134.344 57.926H134.417C134.614 57.4412 134.934 57.0567 135.378 56.7726C135.825 56.4848 136.366 56.3408 137.003 56.3408C137.813 56.3408 138.453 56.5965 138.923 57.1079C139.393 57.6154 139.628 58.3579 139.628 59.3351V65.1817H138.616V59.3351C138.616 58.6457 138.44 58.1287 138.088 57.784C137.736 57.4393 137.272 57.267 136.696 57.267C136.029 57.267 135.516 57.4715 135.156 57.8806C134.796 58.2897 134.616 58.8086 134.616 59.4374V65.1817H133.582V59.2442C133.582 58.6533 133.417 58.176 133.088 57.8124C132.758 57.4488 132.294 57.267 131.696 57.267C131.294 57.267 130.933 57.3654 130.611 57.5624C130.292 57.7594 130.04 58.034 129.855 58.3863C129.673 58.7348 129.582 59.1363 129.582 59.5908V65.1817H128.571Z" fill="#62748E"/>
<path d="M122.802 65.3636C121.988 65.3636 121.284 65.1742 120.689 64.7954C120.094 64.4129 119.634 63.8844 119.308 63.2102C118.986 62.5322 118.825 61.7519 118.825 60.8693C118.825 59.9905 118.986 59.2102 119.308 58.5284C119.634 57.8428 120.083 57.3068 120.655 56.9204C121.23 56.5303 121.895 56.3352 122.649 56.3352C123.123 56.3352 123.579 56.4223 124.018 56.5966C124.458 56.767 124.852 57.0303 125.2 57.3863C125.552 57.7386 125.831 58.1837 126.035 58.7216C126.24 59.2557 126.342 59.8882 126.342 60.6193V61.1193H119.524V60.2273H125.308C125.308 59.6666 125.195 59.1629 124.967 58.7159C124.744 58.2651 124.431 57.9091 124.03 57.6477C123.632 57.3863 123.172 57.2557 122.649 57.2557C122.096 57.2557 121.609 57.4034 121.189 57.6988C120.768 57.9943 120.439 58.3844 120.2 58.8693C119.965 59.3541 119.846 59.8844 119.842 60.4602V60.9943C119.842 61.6875 119.962 62.2935 120.2 62.8125C120.443 63.3276 120.785 63.7273 121.229 64.0113C121.672 64.2954 122.196 64.4375 122.802 64.4375C123.215 64.4375 123.577 64.3731 123.888 64.2443C124.202 64.1155 124.465 63.9432 124.677 63.7273C124.893 63.5076 125.056 63.267 125.166 63.0057L126.126 63.3182C125.994 63.6856 125.776 64.0246 125.473 64.3352C125.174 64.6458 124.799 64.8958 124.348 65.0852C123.901 65.2708 123.386 65.3636 122.802 65.3636Z" fill="#62748E"/>
<path d="M112.148 61.8863L112.136 60.5625H112.363L116.454 56.4545H117.733L113.693 60.5L113.602 60.517L112.148 61.8863ZM111.227 65.1818V53.5454H112.238V65.1818H111.227ZM116.665 65.1818L113.119 60.6988L113.846 60L117.96 65.1818H116.665Z" fill="#62748E"/>
<path d="M104.758 65.3807C104.232 65.3807 103.751 65.2784 103.315 65.0738C102.88 64.8655 102.533 64.5663 102.276 64.1761C102.018 63.7822 101.889 63.3049 101.889 62.7443C101.889 62.3125 101.971 61.9488 102.133 61.6534C102.296 61.3579 102.527 61.1155 102.827 60.9261C103.126 60.7367 103.48 60.5871 103.889 60.4773C104.298 60.3674 104.749 60.2822 105.241 60.2216C105.73 60.161 106.143 60.1079 106.48 60.0625C106.821 60.017 107.08 59.9451 107.258 59.8466C107.437 59.7481 107.526 59.589 107.526 59.3693V59.1648C107.526 58.5701 107.347 58.1023 106.991 57.7613C106.639 57.4166 106.132 57.2443 105.469 57.2443C104.84 57.2443 104.327 57.3826 103.929 57.6591C103.535 57.9356 103.258 58.2613 103.099 58.6363L102.139 58.2898C102.336 57.8125 102.609 57.4318 102.957 57.1477C103.306 56.8598 103.696 56.6534 104.128 56.5284C104.56 56.3996 104.997 56.3352 105.44 56.3352C105.774 56.3352 106.12 56.3788 106.48 56.4659C106.844 56.553 107.181 56.7045 107.491 56.9204C107.802 57.1326 108.054 57.4299 108.247 57.8125C108.44 58.1913 108.537 58.6723 108.537 59.2557V65.1818H107.526V63.8011H107.463C107.342 64.0587 107.162 64.3087 106.923 64.5511C106.685 64.7935 106.385 64.9924 106.026 65.1477C105.666 65.303 105.243 65.3807 104.758 65.3807ZM104.895 64.4545C105.433 64.4545 105.899 64.3352 106.293 64.0966C106.687 63.8579 106.99 63.5416 107.202 63.1477C107.418 62.75 107.526 62.3125 107.526 61.8352V60.5738C107.45 60.6458 107.323 60.7102 107.145 60.767C106.971 60.8238 106.768 60.875 106.537 60.9204C106.31 60.9621 106.082 60.9981 105.855 61.0284C105.628 61.0587 105.423 61.0852 105.241 61.1079C104.749 61.1685 104.329 61.2632 103.98 61.392C103.632 61.5208 103.365 61.6988 103.179 61.9261C102.993 62.1496 102.901 62.4375 102.901 62.7898C102.901 63.3201 103.09 63.731 103.469 64.0227C103.847 64.3106 104.323 64.4545 104.895 64.4545Z" fill="#62748E"/>
<path d="M100.024 56.4544V57.3351H95.8594V56.4544H100.024ZM97.1605 54.3635H98.1776V62.9033C98.1776 63.2669 98.2401 63.5529 98.3651 63.7613C98.4901 63.9658 98.6529 64.1116 98.8537 64.1988C99.0544 64.2821 99.2685 64.3238 99.4957 64.3238C99.6283 64.3238 99.742 64.3162 99.8366 64.301C99.9313 64.2821 100.015 64.2631 100.087 64.2442L100.303 65.159C100.204 65.1969 100.083 65.2309 99.9389 65.2613C99.795 65.2953 99.6169 65.3124 99.4048 65.3124C99.0336 65.3124 98.6757 65.231 98.331 65.0681C97.9901 64.9052 97.7098 64.6628 97.4901 64.3408C97.2704 64.0188 97.1605 63.6192 97.1605 63.1419V54.3635Z" fill="#62748E"/>
<path d="M93.0526 56.4545C92.9883 55.8068 92.7023 55.2916 92.1947 54.909C91.6871 54.5264 91.0489 54.3352 90.2799 54.3352C89.7383 54.3352 89.261 54.428 88.8481 54.6136C88.439 54.7992 88.117 55.0568 87.8822 55.3863C87.6511 55.7121 87.5356 56.0833 87.5356 56.4999C87.5356 56.8068 87.6019 57.0757 87.7345 57.3068C87.867 57.5378 88.0451 57.7367 88.2686 57.9033C88.4958 58.0662 88.7458 58.2064 89.0186 58.3238C89.2951 58.4412 89.5735 58.5397 89.8538 58.6193L91.0811 58.9715C91.4523 59.0738 91.8235 59.2045 92.1947 59.3636C92.5659 59.5227 92.9049 59.7234 93.2117 59.9658C93.5223 60.2045 93.7704 60.498 93.9561 60.8465C94.1454 61.1912 94.2401 61.606 94.2401 62.0908C94.2401 62.7121 94.0792 63.2708 93.7572 63.767C93.4352 64.2632 92.9731 64.6571 92.3708 64.9488C91.7686 65.2367 91.047 65.3806 90.2061 65.3806C89.4144 65.3806 88.7269 65.2499 88.1436 64.9886C87.5602 64.7234 87.1019 64.3579 86.7686 63.892C86.4352 63.4261 86.2477 62.8863 86.2061 62.2727H87.297C87.3348 62.731 87.4864 63.1193 87.7515 63.4374C88.0167 63.7556 88.3614 63.998 88.7856 64.1647C89.2098 64.3276 89.6833 64.409 90.2061 64.409C90.7856 64.409 91.3008 64.3124 91.7515 64.1193C92.2061 63.9223 92.5621 63.6496 92.8197 63.3011C93.0811 62.9488 93.2117 62.5397 93.2117 62.0738C93.2117 61.6799 93.1095 61.3503 92.9049 61.0852C92.7004 60.8162 92.4144 60.5908 92.047 60.409C91.6833 60.2272 91.261 60.0662 90.7799 59.9261L89.3879 59.517C88.475 59.2443 87.7667 58.8674 87.2629 58.3863C86.7591 57.9052 86.5072 57.2916 86.5072 56.5454C86.5072 55.9204 86.6739 55.3711 87.0072 54.8977C87.3443 54.4204 87.7989 54.0492 88.3708 53.784C88.9466 53.5151 89.5924 53.3806 90.3083 53.3806C91.0318 53.3806 91.672 53.5132 92.2288 53.7783C92.7856 54.0435 93.2269 54.409 93.5526 54.8749C93.8822 55.3371 94.0583 55.8636 94.0811 56.4545H93.0526Z" fill="#62748E"/>
<path d="M73.9942 68.4545C73.7935 68.4545 73.606 68.4355 73.4317 68.3977C73.2575 68.3598 73.1192 68.3181 73.017 68.2727L73.2897 67.3806C73.6344 67.4867 73.9412 67.5245 74.2101 67.4942C74.4791 67.4677 74.7177 67.3465 74.926 67.1306C75.1344 66.9185 75.32 66.5927 75.4829 66.1533L75.801 65.267L72.5908 56.4545H73.6874L76.2783 63.8465H76.3579L78.9488 56.4545H80.0454L76.3522 66.5624C76.1969 66.9829 76.0056 67.3333 75.7783 67.6136C75.551 67.8976 75.2878 68.1079 74.9885 68.2442C74.6931 68.3844 74.3617 68.4545 73.9942 68.4545Z" fill="#62748E"/>
<path d="M64 65.1818V53.5454H65.017V58.1193H65.108C65.2216 57.8579 65.3845 57.589 65.5966 57.3125C65.8125 57.0359 66.0947 56.8049 66.4432 56.6193C66.7955 56.4299 67.2386 56.3352 67.7727 56.3352C68.4886 56.3352 69.1174 56.5246 69.6591 56.9034C70.2008 57.2784 70.6231 57.8049 70.9261 58.4829C71.2292 59.1572 71.3807 59.9431 71.3807 60.8409C71.3807 61.7424 71.2292 62.5322 70.9261 63.2102C70.6269 63.8882 70.2064 64.4166 69.6648 64.7954C69.1269 65.1742 68.5019 65.3636 67.7898 65.3636C67.2595 65.3636 66.8163 65.2689 66.4602 65.0795C66.108 64.8901 65.8239 64.6572 65.608 64.3806C65.392 64.1003 65.2254 63.8276 65.108 63.5625H64.983V65.1818H64ZM65 60.8238C65 61.5284 65.1042 62.1534 65.3125 62.6988C65.5246 63.2405 65.8277 63.6666 66.2216 63.9772C66.6193 64.284 67.1004 64.4375 67.6648 64.4375C68.2443 64.4375 68.7348 64.2784 69.1364 63.9602C69.5379 63.6382 69.8428 63.2045 70.0511 62.659C70.2595 62.1136 70.3636 61.5019 70.3636 60.8238C70.3636 60.1534 70.2595 59.5492 70.0511 59.0113C69.8466 58.4734 69.5436 58.0473 69.142 57.7329C68.7405 57.4147 68.2481 57.2556 67.6648 57.2556C67.0966 57.2556 66.6136 57.409 66.2159 57.7159C65.822 58.0189 65.5208 58.4393 65.3125 58.9772C65.1042 59.5113 65 60.1269 65 60.8238Z" fill="#62748E"/>
</g>
<defs>
<filter id="filter0_d_171_365" x="44" y="0" width="202.73" height="87.4545" filterUnits="userSpaceOnUse" color-interpolation-filters="sRGB">
<feFlood flood-opacity="0" result="BackgroundImageFix"/>
<feColorMatrix in="SourceAlpha" type="matrix" values="0 0 0 0 0 0 0 0 0 0 0 0 0 0 0 0 0 0 127 0" result="hardAlpha"/>
<feOffset dy="-1"/>
<feGaussianBlur stdDeviation="10"/>
<feComposite in2="hardAlpha" operator="out"/>
<feColorMatrix type="matrix" values="0 0 0 0 0.603922 0 0 0 0 0.901961 0 0 0 0 0 0 0 0 0.36 0"/>
<feBlend mode="normal" in2="BackgroundImageFix" result="effect1_dropShadow_171_365"/>
<feBlend mode="normal" in="SourceGraphic" in2="effect1_dropShadow_171_365" result="shape"/>
</filter>
</defs>
</svg>
