<svg width="66" height="42" viewBox="0 0 66 42" fill="none" xmlns="http://www.w3.org/2000/svg">
<path d="M30.5822 5.5731C31.6405 3.31579 34.8305 3.25929 35.9681 5.47772L38.2109 9.85189L24.8026 37.9049L15.4248 37.9049L30.5822 5.5731Z" fill="#6A94F1"/>
<path d="M46.7059 5.60139C47.7656 3.346 50.9537 3.29087 52.0907 5.50827L54.3365 9.88816L41.015 37.8601L31.5499 37.8601L46.7059 5.60139Z" fill="#6A94F1"/>
<path d="M57.842 16.1256L62.1429 23.9741C62.4518 24.5379 62.4709 25.2159 62.1941 25.7963L56.4398 37.8601L48.377 37.8601L57.842 16.1256Z" fill="#6A94F1"/>
<path d="M31.1867 5.47501L33.1589 4.46592C34.1246 3.97179 35.3082 4.33763 35.8267 5.29051L43.6199 19.6136L40.0658 21.5836L31.1867 5.47501Z" fill="#6A94F1"/>
<path d="M47.3122 5.47501L49.2844 4.46592C50.2501 3.97179 51.4337 4.33763 51.9522 5.29051L59.7454 19.6136L56.1913 21.5836L47.3122 5.47501Z" fill="#6A94F1"/>
<path d="M24.5468 2.84262C25.4148 2.84468 25.8682 3.87585 25.2829 4.51688L23.7312 6.21635C23.3523 6.63137 22.8162 6.86781 22.2542 6.86781L8.41303 6.86781V2.80426L24.5468 2.84262Z" fill="#193CB8"/>
<path d="M18.5796 33.697L18.4133 37.86H2.1495C1.29926 37.86 0.836918 36.8662 1.38458 36.2158L2.90629 34.4088C3.2863 33.9575 3.84617 33.697 4.43613 33.697L18.5796 33.697Z" fill="#193CB8"/>
<path d="M8.41326 2.80432L3.6825 11.1419C3.36494 11.7016 3.33607 12.3799 3.60492 12.9645L15.0735 37.9041L24.8086 37.9041L8.41326 2.80432Z" fill="#155DFC"/>
</svg>
