<svg width="163" height="74" viewBox="0 0 163 74" fill="none" xmlns="http://www.w3.org/2000/svg">
<path d="M81.5822 5.5731C82.6405 3.31579 85.8305 3.25929 86.9681 5.47772L89.2109 9.85189L75.8026 37.9049L66.4248 37.9049L81.5822 5.5731Z" fill="white"/>
<path d="M97.7059 5.60139C98.7656 3.346 101.954 3.29087 103.091 5.50827L105.337 9.88816L92.015 37.8601L82.5499 37.8601L97.7059 5.60139Z" fill="white"/>
<path d="M108.842 16.1256L113.143 23.9741C113.452 24.5379 113.471 25.2159 113.194 25.7963L107.44 37.8601L99.377 37.8601L108.842 16.1256Z" fill="white"/>
<path d="M82.1867 5.47501L84.1589 4.46592C85.1246 3.97179 86.3082 4.33763 86.8267 5.29051L94.6199 19.6136L91.0658 21.5836L82.1867 5.47501Z" fill="white"/>
<path d="M98.3122 5.47501L100.284 4.46592C101.25 3.97179 102.434 4.33763 102.952 5.29051L110.745 19.6136L107.191 21.5836L98.3122 5.47501Z" fill="white"/>
<path d="M75.5468 2.84262C76.4148 2.84468 76.8682 3.87585 76.2829 4.51688L74.7312 6.21635C74.3523 6.63137 73.8162 6.86781 73.2542 6.86781L59.413 6.86781V2.80426L75.5468 2.84262Z" fill="white"/>
<path d="M69.5796 33.697L69.4133 37.86H53.1495C52.2993 37.86 51.8369 36.8662 52.3846 36.2158L53.9063 34.4088C54.2863 33.9575 54.8462 33.697 55.4361 33.697L69.5796 33.697Z" fill="white"/>
<path d="M59.4133 2.80432L54.6825 11.1419C54.3649 11.7016 54.3361 12.3799 54.6049 12.9645L66.0735 37.9041L75.8086 37.9041L59.4133 2.80432Z" fill="#DADADA"/>
<path d="M4.032 44.8H12.672V49.12H5.76L5.652 49.336L11.412 59.848C12.588 61.96 13.176 63.568 13.176 64.672C13.176 67.096 12.372 68.872 10.764 70H1.224V65.824H8.676L8.784 65.608L2.304 53.98C1.368 52.3 0.9 50.932 0.9 49.876C0.9 47.38 1.944 45.688 4.032 44.8ZM21.553 49.12H16.117V44.8H31.885V49.12H26.449V70H21.553V49.12ZM44.1458 70L43.3898 66.004H37.7018L36.9458 70H32.0498L36.9098 44.8H44.3618L48.9698 70H44.1458ZM40.4738 49.48L39.0698 57.868L38.2778 62.152H42.7778L41.9498 57.868L40.5458 49.48H40.4738ZM52.8663 70V44.8H57.7983V55.42H57.9783L62.4783 44.8H67.5543L62.2983 56.824L67.8063 70H62.3343L58.0503 58.984H57.7983V70H52.8663ZM71.3303 70V44.8H84.2543V49.12H76.2623V55.132H83.3903V59.308H76.2623V65.824H84.3983V70H71.3303Z" fill="white"/>
<path d="M98.1658 58.48H98.0218H98.1658L100.074 50.596L101.622 44.8H106.122L107.742 70H103.026L102.342 56.248H102.162L99.5698 66.4H96.6178L94.0258 56.248H93.8458L93.1618 70H88.4458L90.0658 44.8H94.5658L96.1138 50.596L98.0218 58.48H98.1658ZM123.17 70L122.414 66.004H116.726L115.97 70H111.074L115.934 44.8H123.386L127.994 70H123.17ZM119.498 49.48L118.094 57.868L117.302 62.152H121.802L120.974 57.868L119.57 49.48H119.498ZM133.779 49.12H128.343V44.8H144.111V49.12H138.675V70H133.779V49.12ZM147.999 70V44.8H160.923V49.12H152.931V55.132H160.059V59.308H152.931V65.824H161.067V70H147.999Z" fill="white"/>
</svg>
